<svg id="visual" viewBox="0 0 900 600" width="900" height="600" xmlns="http://www.w3.org/2000/svg" xmlns:xlink="http://www.w3.org/1999/xlink" version="1.1"><rect x="0" y="0" width="900" height="600" fill="#F5f5f5"></rect><g transform="translate(455.7640043331572 302.6890954273909)"><path d="M115.8 -151.3C151.3 -108.3 182 -72.9 199.7 -27.1C217.4 18.7 222.2 74.8 203.8 128.1C185.5 181.3 144 231.6 92.9 246.4C41.7 261.2 -19.2 240.6 -78.1 217.7C-137.1 194.9 -194.1 170 -215.7 127.2C-237.4 84.3 -223.6 23.7 -210 -34.2C-196.4 -92.1 -183.1 -147.2 -148.1 -190.3C-113.1 -233.5 -56.6 -264.7 -8.2 -255C40.2 -245.2 80.4 -194.4 115.8 -151.3" fill="#f6136d"></path></g></svg>