<svg id="visual" viewBox="0 0 900 600" width="900" height="600" xmlns="http://www.w3.org/2000/svg" xmlns:xlink="http://www.w3.org/1999/xlink" version="1.1"><rect x="0" y="0" width="900" height="600" fill="#FFFFFF"></rect><path d="M0 468L21.5 463.5C43 459 86 450 128.8 447.8C171.7 445.7 214.3 450.3 257.2 462.5C300 474.7 343 494.3 385.8 498.3C428.7 502.3 471.3 490.7 514.2 479.5C557 468.3 600 457.7 642.8 461.7C685.7 465.7 728.3 484.3 771.2 487.3C814 490.3 857 477.7 878.5 471.3L900 465L900 601L878.5 601C857 601 814 601 771.2 601C728.3 601 685.7 601 642.8 601C600 601 557 601 514.2 601C471.3 601 428.7 601 385.8 601C343 601 300 601 257.2 601C214.3 601 171.7 601 128.8 601C86 601 43 601 21.5 601L0 601Z" fill="#b200ff" stroke-linecap="round" stroke-linejoin="miter"></path></svg>